<?xml version="1.0" encoding="utf-8"?>
<!-- Generator: Adobe Illustrator 28.0.0, SVG Export Plug-In . SVG Version: 6.00 Build 0)  -->
<svg version="1.1" id="Layer_1" xmlns="http://www.w3.org/2000/svg" xmlns:xlink="http://www.w3.org/1999/xlink" x="0px" y="0px"
	 viewBox="0 0 974.1 1498.5" style="enable-background:new 0 0 974.1 1498.5;" xml:space="preserve">
<style type="text/css">
	.st0{fill:#C8102E;}
	.st1{fill:#FFCD00;}
	.st2{fill:#003087;}
</style>
<g>
	<path class="st0" d="M351.8,356c6.4-2.5,13-4.8,19.2-7.6c13.6-6.3,27.3-12.5,40.6-19.5c18.7-9.8,36.7-20.9,52.8-34.6
		c10.8-9.1,21-18.9,31.2-28.7c4.5-4.3,8.3-9.4,12.4-14.2c2.1-2.5,4.6-2.8,7-1.3c2.3,1.4,2.9,3.7,1.5,6.5
		c-9.4,19.2-20.7,37.1-35.2,52.9c-9.3,10.2-18.6,20.6-29,29.6c-13.1,11.3-26.9,22-41.2,31.8c-15.7,10.7-32.2,20-48.4,29.9
		c-0.7,0.4-1.3,1-2.6,1.6c-1,0.2-1.4,0.2-1.8,0.4c-23.1,11.9-46.3,23.7-69.4,35.7c-0.9,0.5-1.7,1.4-2.8,2.1c-4.3,2-8.3,4-12.6,6.1
		c-3,1.4-5.7,2.7-8.4,4.1c-14.1,7.2-28.1,14.3-42.1,21.6c-9.4,4.9-18.6,10-28.2,15c-12.1,7.6-24.3,14.5-35.5,22.9
		c-11.4,8.5-21.8,18.4-32.6,27.7c-1.2,1-1.8,2.7-3,4.2c-14.3,14.3-24.9,30.8-32.2,49.3c-5.8,14.8-9.3,30.2-9.6,46.2
		c-0.1,8.1,0.1,16.2,0.9,24.3c0.9,8.7,2.3,17.5,4.1,26.1c3.4,16.2,9.8,31.2,17.9,45.6c9.1,16.3,20.4,31.1,33.1,44.8
		c13.4,14.4,27.6,28.1,43.3,40.1c14.9,11.3,29.6,23,44.9,33.7c15.6,11,31.8,21,47.8,31.7c1.2,0.9,2.2,1.6,3.3,2.3
		c21.4,13.1,42.8,26.2,64.2,39.2c24.8,15.1,49.8,30.1,74.6,45.4c27.7,17.1,55.3,34.3,82.7,51.9c17.6,11.3,34.8,23.2,52,35.1
		c11.3,7.8,22.4,15.9,33.6,24.1c0.9,0.8,1.8,1.2,2.5,1.8c21.2,16.7,42.7,33.2,63.6,50.3c13.8,11.2,27,23.1,40.2,35.1
		c11.8,10.7,23.3,21.8,34.7,33c6.8,6.7,13.3,13.6,19.8,20.6c8.4,9.1,16.9,18.2,25,27.6c10.9,12.6,21.7,25.2,32.2,38.1
		c9.9,12.2,19.6,24.6,28.7,37.4c11.3,15.9,22.2,32,32.6,48.5c8.9,14,17,28.4,25.2,42.8c4.8,8.3,9.3,16.8,13.6,25.4
		c7.9,15.8,15.6,31.7,23,47.7c2.2,4.8,1.4,6.1-3,8.3c-0.6,0-1.3,0-2.2,0c-5.4-6.1-10.5-12.2-15.5-18.4c-7.2-8.9-14.1-18-21.3-26.9
		c-8.8-10.9-17.6-21.7-26.5-32.4c-6-7.1-12.1-14.1-18.4-21c-12.4-13.5-25-26.8-37.6-40.1c-8.9-9.4-17.8-18.7-27-27.8
		c-9.4-9.2-18.9-18.3-28.7-27c-12.4-11.1-25-22-37.8-32.7c-14.3-12-28.6-24-43.3-35.6c-13-10.2-26.2-20.1-39.7-29.6
		c-25.2-17.7-50.4-35.3-76-52.3c-19.5-13-39.5-25.2-59.5-37.4c-19.7-12.1-39.7-23.8-60.1-35.9c-4.1-2.4-7.7-4.4-11.3-6.5
		c-13.6-7.8-27.1-15.6-40.7-23.5c-14.3-8.2-28.6-16.5-42.8-24.7c-11.8-6.8-23.5-13.6-35.2-20.4c-8.2-4.8-16.5-9.5-24.7-14.3
		c-29.5-18.9-59.4-37.3-88.5-56.8c-16.9-11.3-33-23.8-49-36.4c-11.4-9-22.3-18.8-33-28.7c-9.5-8.8-18.9-18-27.6-27.6
		c-15.7-17.4-29.6-36.2-41.3-56.6c-10-17.4-18.5-35.5-23.7-54.8C7.4,718,5,704.8,2.5,691.6c-1.2-6.5-1.3-13.2-2.3-20
		c-0.3-11.2-0.3-22.2,0-33.7c1.9-12.2,2.7-24,5.1-35.4c4-18.8,10.7-36.6,19.8-53.7c9.7-18.1,21.4-34.8,35.8-49.4
		c9.6-9.8,20-19,30.9-27.5c9.7-7.6,20.4-13.8,31-20.6c22.9-13.5,46.5-24.8,70.7-34.9c5.2-2.2,10.2-4.7,15.7-7.1
		c21.8-7.9,43.2-15.9,64.9-23.8c0.6-0.3,1-0.5,1.7-0.7c0.9,0,1.5,0,2-0.1c22.4-8.3,44.8-16.6,67.2-24.9
		C347.4,358.8,349.6,357.2,351.8,356z"/>
	<path class="st1" d="M974.1,1080.3c-2,0.7-4,0.9-6.5,0.9c-0.9-0.4-1.4-0.5-1.7-0.7c-5-5.5-9.8-11-14.8-16.4
		c-11.3-12.2-22.6-24.4-34-36.5c-10.7-11.4-21.4-22.9-32.5-34.1c-14.3-14.4-28.8-28.5-43.3-42.5c-10.8-10.4-21.7-20.7-32.6-30.9
		c-7.2-6.8-14.4-13.6-21.9-20.1c-13-11.3-26.1-22.3-39.3-33.4c-9.8-8.3-19.7-16.6-29.7-24.6c-13.2-10.4-26.5-20.7-40-30.7
		c-16.3-12.1-32.8-24-49.3-35.9c-14.4-10.3-28.8-20.6-43.4-30.6c-29.3-20.3-58.9-40.3-88.2-60.6c-12.3-8.5-24.5-17.2-36.5-26.2
		c-11-8.3-21.8-16.9-32.5-25.7c-11.4-9.3-22.9-18.4-33.5-28.6c-13.7-13.2-26.9-27-39.6-41.3c-9.3-10.5-17.7-21.8-25.9-33.2
		c-12.3-17.1-22.4-35.5-30.4-54.9c-4.5-11-8.1-22.3-12-33.5c0.8-0.7,1.6-1.6,2.5-2.1c23.1-11.9,46.2-23.8,69.4-35.7
		c0.4-0.2,0.8-0.2,1.5-0.3c3.1,8.6,5.5,17.3,8.7,25.7c7,18.3,16.5,35.3,28,51c7.6,10.3,15.8,20.3,24.3,29.9
		c7.4,8.4,15.2,16.6,23.4,24.2c10.3,9.6,20.9,18.7,31.7,27.6c12.6,10.5,25.5,20.8,38.5,30.8c13.3,10.3,26.8,20.2,40.3,30.2
		c12.9,9.6,25.9,19.1,38.8,28.7c12.7,9.4,25.5,18.8,38,28.4c11.1,8.4,22,17,32.9,25.7c10.6,8.4,21.1,17,31.5,25.6
		c6.3,5.2,12.4,10.7,18.6,16c27.3,23.6,52.9,48.9,78,74.8c12.4,12.8,24,26.4,35.7,39.8c9.2,10.5,18.3,21.2,27,32.1
		c10.2,12.8,20.3,25.8,29.8,39.1c12.7,17.7,25.1,35.7,37,54c9.7,14.8,18.7,30,27.6,45.2c7.9,13.5,15.2,27.3,22.7,41
		c0.3,0.5,0.7,0.8,1.4,0.9C974.1,1075.4,974.1,1077.7,974.1,1080.3z"/>
	<path class="st1" d="M291.7,257.8c5-9.6,9.5-19.4,15-28.7c10.5-17.7,24.1-33,39.2-46.8c15-13.8,31.3-26.1,48.8-36.8
		c16.5-10,33.2-19.7,49.8-29.6c14.6-8.7,29.5-17,43.7-26.2c9.4-6.2,18.1-13.6,26.8-20.8C530.3,56,541.8,40.1,550.4,22
		c2.6-5.5,4.5-11.4,6.8-17.1c0.6-1.5,1.4-2.9,1.9-4.7c1.8-0.3,3.8-0.3,6.1-0.3c2.9,8.2,1.5,16.5,0.1,24.4
		c-2.1,11.2-5.4,22.3-9.1,33.1c-4.7,13.9-12.2,26.4-21.4,37.7c-9.2,11.3-18.9,22.3-29.3,32.6c-9,9-19.2,16.8-29,25
		c-10.7,8.9-21.8,17.5-32.4,26.6c-14.5,12.5-28.8,25.3-43.1,38.1c-2.6,2.3-4.7,5.1-7.4,8.1c-1.3,0.9-2.2,1.7-3.2,2
		c-19.7,5.9-39.4,11.7-59.1,17.7C318.2,249.3,304.9,253.6,291.7,257.8z"/>
	<path class="st2" d="M291.3,257.9c13.6-4.3,26.9-8.6,40.2-12.6c19.7-6,39.4-11.8,59.1-17.7c1-0.3,1.9-1,3.1-1.7
		c8.5-2.7,16.9-4.8,24.9-7.8c10.8-4.1,21.8-8.1,31.9-13.5c13.3-7.2,26.6-14.9,38.7-24c11.4-8.7,21.1-19.5,31.6-29.4
		c1.4-1.3,3.2-2.7,4.9-2.8c3.4-0.3,5.6,3.7,3.7,6.9c-6.7,11.2-13.3,22.6-20.9,33.2c-5.3,7.5-12.1,13.9-18.6,20.5
		c-14.3,14.5-30.7,26.4-48.3,36.5c-15.3,8.7-31,16.8-46.7,24.7c-12,6-24.4,11.1-37.2,16.6c-7.9,3.2-15.4,6.1-22.5,9.6
		c-14.6,7.2-29.2,14.6-43.6,22.4c-6.2,3.4-11.8,7.9-17.9,12c-5,3.7-10,6.9-14.3,10.9c-9.1,8.4-18.5,16.6-26.5,26
		c-10.4,12.3-18.3,26.5-23.9,41.8c-5.1,2.4-10.1,5-15.4,7.1c-24.3,10.1-47.8,21.4-70.7,34.9c2.6-11.9,5-24,8.4-35.7
		c4.7-16.1,11.3-31.6,19.3-46.4c6.9-12.8,15.2-24.8,24.7-35.9c15.5-18.2,33.4-33.7,53.9-46c13-7.8,26.9-14,40.4-20.9
		c1.2-0.6,2.5-1.1,4-1.8C279.6,262.4,285.3,260.2,291.3,257.9z"/>
	<path class="st1" d="M273.9,330.5c5.9-4,11.4-8.5,17.6-11.9c14.4-7.8,29-15.1,43.6-22.4c7.1-3.5,14.6-6.4,22.2-9.5
		c-2.6,10.8-5.5,21.5-5.6,32.7c-0.1,8.8-0.6,17.6-0.8,26.3c0,3.2,0.5,6.3,0.9,9.9c-2.2,1.6-4.3,3.2-6.7,4.1
		c-22.4,8.4-44.8,16.7-67.2,24.9c-0.5,0.2-1.1,0.2-2-0.2c-0.6-4.7-0.8-8.9-1.2-13.2c-0.1-1.7-0.5-3.4-0.7-5.5
		c0.2-10.4,0.5-20.5,0.7-30.6C274.7,333.6,274.2,332.1,273.9,330.5z"/>
	<path class="st2" d="M824.5,1081.6c19.6,27.6,39.6,54.9,58.5,83c11.8,17.6,22.2,36.1,32.6,54.5c9.3,16.4,17.8,33.3,26.6,50
		c0.1,0.2,0.4,0.4,0.5,0.7c1.1,3.1,3.6,6.4-0.6,9.1c-2.7,1.8-5.3,0.3-8.7-4c-4.4-5.4-9.2-10.5-13.7-15.7
		c-9.4-10.8-18.7-21.6-28.2-32.3c-4.9-5.5-9.8-11.1-14.8-16.5c-12.5-13.4-24.8-26.9-37.6-40.1c-20-20.6-40.1-41-60.4-61.3
		c-8-8-16.5-15.5-24.8-23.2c-1.6-1.5-3.4-2.8-5.5-4.6c-7.6-6.8-14.8-13.2-22.1-19.5c-13-11.2-26-22.5-39.3-33.3
		c-16.9-13.9-33.7-28-51.3-41c-33.8-24.8-67.9-49.3-102.4-73.2c-26.8-18.6-54.5-36-81.8-53.8c-27.1-17.7-54.6-34.8-81.4-52.8
		c-32.3-21.8-64.2-44.4-96.5-66.8c-5.3-4.2-10.3-8.3-15.3-12.5c-12.8-10.8-26-21.1-38.2-32.6c-11.9-11.2-23-23.3-33.9-35.5
		c-7.4-8.3-14-17.3-20.6-26.3c-13-17.7-23.5-36.9-31.2-57.4c-4.2-11.2-7-22.9-10.4-34.4c0.9-1.4,1.5-3,2.7-4.1
		c10.8-9.4,21.2-19.2,32.6-27.7c11.2-8.3,23.5-15.3,35.5-22.5c1.4,8.3,2.4,16.4,3.7,24.3c3.4,19.9,11.4,38.2,22.3,55
		c7.3,11.2,15.7,22,24.5,32.1c8.9,10.2,18.9,19.4,28.7,29.2c11.7,9.8,22.6,20.1,34.6,29c22,16.4,44.3,32.5,67,47.9
		c37.3,25.5,75.2,50.2,112.6,75.6c20.2,13.7,40.4,27.5,60,42c24.8,18.3,49.4,36.9,73.5,56c19.4,15.3,38.3,31.3,56.9,47.6
		c14.3,12.5,28,25.5,41.5,38.9c15.2,15,29.8,30.6,44.5,46.1c8.3,8.7,16.5,17.6,24.2,26.8C801,1052.5,812.7,1067.1,824.5,1081.6z"/>
	<path class="st1" d="M274.1,385.5c-0.2-6.2-0.2-12.4-0.2-18.9c0.3,1.3,0.6,3,0.8,4.7c0.3,4.2,2.9,8.3,3.2,12.9
		C277.5,384.8,274.8,385.2,274.1,385.5z"/>
</g>
</svg>
